<svg id="svg" version="1.1" xmlns="http://www.w3.org/2000/svg" xmlns:xlink="http://www.w3.org/1999/xlink" width="400" height="133.29294153286884" viewBox="0, 0, 400,133.29294153286884"><g id="svgg"><path id="path0" d="M65.750 28.427 C 65.475 28.463,64.387 28.575,63.333 28.676 C 62.279 28.777,61.079 28.930,60.667 29.017 C 60.254 29.104,59.729 29.208,59.500 29.248 C 57.416 29.616,54.075 30.678,51.982 31.637 C 49.050 32.980,46.977 34.153,45.167 35.491 C 44.479 35.999,43.879 36.455,43.833 36.503 C 43.788 36.552,43.413 36.850,43.000 37.165 C 40.828 38.824,37.032 43.040,35.495 45.500 C 35.180 46.004,34.865 46.442,34.795 46.472 C 34.724 46.503,34.667 46.595,34.667 46.678 C 34.667 46.760,34.380 47.298,34.030 47.872 C 33.317 49.041,32.494 50.743,32.155 51.750 C 32.031 52.117,31.877 52.492,31.811 52.585 C 31.409 53.154,30.494 56.243,29.912 59.000 C 29.118 62.761,28.964 69.366,29.593 72.646 C 29.727 73.345,29.916 74.329,30.012 74.833 C 30.108 75.337,30.290 76.087,30.415 76.500 C 31.174 79.000,31.545 80.141,31.744 80.583 C 31.974 81.098,32.263 81.825,32.321 82.036 C 32.339 82.102,32.697 82.815,33.117 83.620 C 33.537 84.425,33.996 85.308,34.137 85.583 C 34.417 86.128,35.509 87.803,36.372 89.014 C 38.190 91.563,41.563 95.057,43.767 96.674 C 44.308 97.071,44.775 97.457,44.806 97.531 C 44.836 97.606,44.933 97.667,45.021 97.667 C 45.109 97.667,45.571 97.955,46.049 98.306 C 46.526 98.658,46.992 98.978,47.083 99.017 C 47.175 99.057,47.550 99.275,47.917 99.502 C 48.283 99.729,48.621 99.902,48.667 99.886 C 48.712 99.870,48.862 99.953,49.000 100.070 C 49.226 100.264,52.106 101.679,52.917 101.996 C 55.133 102.863,57.825 103.686,59.205 103.920 C 59.505 103.970,59.866 104.047,60.007 104.090 C 63.991 105.292,73.281 104.829,78.391 103.173 C 81.447 102.183,81.763 102.057,84.083 100.904 C 86.530 99.689,87.724 99.017,87.806 98.809 C 87.836 98.731,87.949 98.665,88.056 98.662 C 88.162 98.660,88.700 98.322,89.250 97.912 C 89.800 97.501,90.431 97.034,90.653 96.874 C 90.874 96.714,91.136 96.508,91.236 96.417 C 91.336 96.325,91.758 95.977,92.174 95.643 C 93.579 94.514,95.657 92.373,97.085 90.583 C 97.451 90.125,97.795 89.712,97.850 89.667 C 97.953 89.580,98.195 89.227,99.559 87.166 C 100.424 85.858,102.075 82.672,102.668 81.167 C 102.866 80.662,103.085 80.137,103.154 80.000 C 103.223 79.862,103.411 79.300,103.572 78.750 C 103.732 78.200,103.924 77.594,103.999 77.403 C 104.641 75.754,105.211 72.275,105.587 67.708 L 105.687 66.500 71.927 66.500 L 38.167 66.500 38.167 67.701 C 38.167 69.782,39.333 75.705,39.848 76.242 C 39.932 76.329,40.000 76.506,40.000 76.636 C 40.000 76.941,41.720 80.453,42.256 81.243 C 42.482 81.576,42.667 81.911,42.667 81.987 C 42.667 82.063,42.789 82.228,42.939 82.352 C 43.089 82.477,43.380 82.842,43.585 83.164 C 43.791 83.486,44.155 83.960,44.396 84.217 C 44.637 84.474,44.833 84.710,44.833 84.743 C 44.833 84.834,46.957 86.849,48.167 87.906 C 49.971 89.482,52.490 90.917,55.750 92.226 C 60.916 94.300,69.650 94.272,74.083 92.167 C 74.267 92.080,74.829 91.851,75.333 91.657 C 77.893 90.675,83.909 86.520,83.445 86.056 C 83.395 86.006,81.715 86.322,78.917 86.909 C 78.275 87.044,77.462 87.195,77.109 87.245 C 76.756 87.296,76.156 87.405,75.776 87.490 C 75.395 87.574,74.296 87.729,73.333 87.836 C 72.371 87.942,70.761 88.135,69.757 88.264 C 67.673 88.533,62.242 88.577,60.750 88.336 C 60.200 88.248,59.450 88.132,59.083 88.079 C 57.277 87.819,54.847 86.745,54.071 85.863 C 53.681 85.421,53.533 84.833,53.811 84.833 C 53.891 84.833,54.142 84.552,54.369 84.208 C 54.788 83.577,56.815 81.326,57.400 80.844 C 57.574 80.701,57.839 80.471,57.989 80.333 C 59.233 79.190,61.567 77.739,63.083 77.166 C 63.267 77.097,63.717 76.923,64.083 76.781 C 64.995 76.426,66.012 76.120,66.434 76.074 C 66.628 76.052,67.194 75.943,67.694 75.831 C 68.595 75.630,72.920 75.674,73.833 75.894 C 74.063 75.949,74.475 76.042,74.750 76.100 C 75.025 76.158,75.325 76.253,75.417 76.310 C 75.612 76.432,75.903 76.542,78.667 77.536 C 79.813 77.948,81.087 78.377,81.500 78.490 C 81.912 78.602,82.625 78.798,83.083 78.925 C 87.350 80.108,94.048 80.532,96.042 79.746 C 96.544 79.548,96.189 80.509,94.871 82.917 C 92.851 86.608,88.066 92.042,85.731 93.297 C 85.512 93.415,85.333 93.583,85.333 93.672 C 85.333 93.761,85.247 93.833,85.141 93.833 C 85.035 93.833,84.716 94.008,84.432 94.221 C 84.149 94.434,83.804 94.659,83.667 94.722 C 83.529 94.785,83.192 94.981,82.917 95.158 C 76.182 99.477,66.504 100.663,58.000 98.210 C 57.221 97.986,56.384 97.697,56.141 97.568 C 55.898 97.439,55.612 97.333,55.507 97.333 C 54.841 97.333,50.581 94.996,48.458 93.466 C 45.437 91.289,41.489 87.093,40.100 84.583 C 39.948 84.308,39.681 83.858,39.507 83.583 C 39.194 83.087,37.827 80.375,37.407 79.417 C 34.039 71.726,34.069 61.864,37.487 53.683 C 38.048 52.339,38.699 50.966,38.837 50.833 C 38.884 50.788,39.023 50.525,39.144 50.250 C 39.356 49.767,40.797 47.503,41.000 47.333 C 41.055 47.288,41.281 46.987,41.503 46.667 C 41.724 46.346,41.983 45.999,42.078 45.897 C 42.173 45.794,42.587 45.308,43.000 44.817 C 44.141 43.459,47.008 40.667,47.262 40.667 C 47.309 40.667,47.513 40.510,47.715 40.319 C 49.051 39.059,57.124 34.500,58.020 34.500 C 58.156 34.500,58.338 34.437,58.425 34.361 C 58.841 33.995,63.043 32.815,65.000 32.514 C 67.219 32.173,70.567 31.959,71.970 32.069 C 72.766 32.132,73.867 32.217,74.417 32.258 C 76.611 32.423,81.107 33.477,82.917 34.251 C 83.192 34.369,83.604 34.539,83.833 34.630 C 84.746 34.992,87.698 36.511,88.583 37.074 C 88.858 37.248,89.496 37.654,90.000 37.975 C 90.504 38.296,91.114 38.714,91.356 38.904 C 92.787 40.031,93.191 40.370,94.487 41.530 C 95.273 42.234,96.156 43.096,96.449 43.447 C 96.742 43.797,97.218 44.346,97.507 44.667 C 98.843 46.151,100.658 48.780,101.867 50.983 C 102.023 51.267,102.232 51.500,102.332 51.500 C 102.497 51.500,100.420 47.190,100.163 47.000 C 100.100 46.954,99.870 46.608,99.650 46.231 C 99.122 45.326,97.955 43.677,97.517 43.215 C 97.324 43.013,97.167 42.814,97.167 42.774 C 97.167 42.351,91.599 36.833,91.171 36.833 C 91.077 36.833,91.000 36.771,91.000 36.696 C 91.000 36.534,88.513 34.726,87.667 34.271 C 87.346 34.099,87.046 33.911,87.000 33.854 C 86.758 33.551,82.650 31.500,82.286 31.500 C 82.140 31.500,81.975 31.428,81.920 31.340 C 81.866 31.251,81.580 31.107,81.286 31.018 C 80.991 30.930,80.300 30.700,79.750 30.508 C 77.799 29.824,76.424 29.451,75.058 29.235 C 74.705 29.179,74.370 29.105,74.313 29.070 C 74.257 29.036,73.807 28.964,73.313 28.911 C 72.820 28.858,71.892 28.747,71.250 28.665 C 69.826 28.484,66.435 28.337,65.750 28.427 M226.333 36.580 C 224.898 36.848,223.180 37.344,223.069 37.523 C 223.020 37.602,222.877 37.667,222.752 37.667 C 222.317 37.667,220.301 38.708,218.796 39.710 C 217.670 40.460,214.811 43.162,214.933 43.360 C 214.981 43.437,214.955 43.500,214.876 43.500 C 214.797 43.500,214.404 43.966,214.002 44.536 C 213.236 45.621,212.109 47.667,212.277 47.667 C 212.330 47.667,212.289 47.769,212.185 47.894 C 212.082 48.019,211.774 48.815,211.501 49.663 C 208.662 58.496,213.070 68.651,221.417 72.507 C 222.058 72.804,222.714 73.111,222.874 73.191 C 225.568 74.529,231.646 74.689,235.594 73.525 C 236.312 73.313,239.238 71.949,239.306 71.795 C 239.336 71.724,239.434 71.667,239.523 71.667 C 240.100 71.667,244.024 68.191,244.838 66.959 C 245.065 66.616,245.306 66.335,245.375 66.334 C 245.444 66.334,245.500 66.247,245.500 66.141 C 245.500 66.035,245.671 65.716,245.879 65.432 C 246.525 64.553,247.425 62.611,247.894 61.083 C 248.576 58.860,248.680 58.158,248.674 55.799 C 248.665 52.279,248.495 51.199,247.536 48.590 C 247.159 47.563,246.908 47.040,246.098 45.592 C 245.026 43.672,241.447 39.852,240.708 39.837 C 240.594 39.835,240.500 39.765,240.500 39.681 C 240.500 39.279,237.301 37.731,235.083 37.059 C 232.755 36.354,228.729 36.134,226.333 36.580 M311.250 36.664 C 309.324 37.053,306.882 37.982,305.423 38.882 C 301.920 41.043,299.485 43.656,297.937 46.917 C 297.676 47.467,297.398 48.043,297.320 48.197 C 294.855 53.052,295.926 61.614,299.621 66.590 C 301.093 68.573,303.858 71.167,304.499 71.167 C 304.591 71.167,304.667 71.230,304.667 71.307 C 304.667 71.419,306.646 72.474,308.182 73.181 C 311.160 74.552,316.253 74.693,320.833 73.534 C 322.422 73.131,325.863 71.214,327.303 69.928 C 328.407 68.942,329.833 67.491,329.833 67.352 C 329.833 67.265,329.894 67.169,329.969 67.139 C 330.383 66.969,331.950 64.308,332.847 62.250 C 334.017 59.566,334.420 53.961,333.644 51.167 C 333.555 50.846,333.371 50.171,333.236 49.667 C 333.101 49.163,332.880 48.514,332.745 48.225 C 332.610 47.936,332.500 47.659,332.500 47.609 C 332.500 47.348,330.513 44.126,330.292 44.028 C 330.223 43.997,330.167 43.889,330.167 43.786 C 330.167 43.569,328.765 42.077,327.269 40.700 C 326.107 39.631,321.968 37.350,321.000 37.245 C 320.954 37.240,320.654 37.146,320.333 37.037 C 318.204 36.310,313.881 36.133,311.250 36.664 M190.375 37.293 L 182.833 37.337 182.833 55.418 L 182.833 73.500 186.417 73.500 L 190.000 73.500 190.000 67.350 L 190.000 61.201 194.708 61.122 C 199.376 61.044,200.101 60.961,201.271 60.371 C 201.443 60.284,202.025 59.997,202.564 59.732 C 206.923 57.592,209.952 50.693,208.412 46.417 C 208.280 46.050,208.171 45.653,208.169 45.535 C 208.165 45.135,207.000 42.870,206.542 42.370 C 206.427 42.245,206.333 42.086,206.333 42.018 C 206.333 41.066,202.137 38.246,199.989 37.752 C 199.307 37.596,198.563 37.419,198.333 37.359 C 198.104 37.299,194.523 37.270,190.375 37.293 M254.070 37.319 C 254.031 37.358,254.000 45.514,254.000 55.444 L 254.000 73.500 263.583 73.500 L 273.167 73.500 273.167 70.167 L 273.167 66.833 267.250 66.833 L 261.333 66.833 261.333 52.042 L 261.333 37.250 257.736 37.250 C 255.758 37.250,254.108 37.281,254.070 37.319 M277.000 55.375 L 277.000 73.500 286.583 73.500 L 296.167 73.500 296.167 70.167 L 296.167 66.833 290.167 66.833 L 284.167 66.833 284.167 52.090 L 284.167 37.346 280.583 37.298 L 277.000 37.250 277.000 55.375 M338.944 37.278 C 338.883 37.339,338.833 45.515,338.833 55.448 L 338.833 73.507 342.458 73.462 L 346.083 73.417 346.168 61.167 C 346.215 54.429,346.271 49.002,346.293 49.107 C 346.315 49.212,346.741 49.899,347.238 50.635 C 347.736 51.370,348.269 52.214,348.423 52.512 C 348.576 52.809,348.773 53.134,348.859 53.234 C 349.137 53.559,350.833 56.178,350.833 56.283 C 350.833 56.339,351.021 56.631,351.250 56.931 C 351.479 57.232,351.667 57.515,351.667 57.562 C 351.667 57.654,353.395 60.299,353.663 60.618 C 353.757 60.729,353.833 60.886,353.833 60.967 C 353.833 61.048,353.983 61.251,354.167 61.417 C 354.350 61.583,354.500 61.783,354.500 61.863 C 354.500 62.004,355.321 63.336,355.509 63.500 C 355.562 63.546,355.863 64.019,356.178 64.552 C 357.171 66.234,357.405 66.600,357.875 67.213 C 358.127 67.542,358.333 67.865,358.333 67.931 C 358.333 67.998,358.521 68.298,358.750 68.598 C 358.979 68.899,359.167 69.200,359.167 69.267 C 359.167 69.335,359.274 69.509,359.405 69.654 C 359.536 69.799,359.746 70.105,359.870 70.334 C 359.995 70.563,360.495 71.369,360.982 72.125 L 361.867 73.500 365.517 73.500 L 369.168 73.500 369.126 55.375 L 369.083 37.250 365.500 37.250 L 361.917 37.250 361.874 49.478 C 361.836 60.301,361.803 61.682,361.582 61.499 C 361.445 61.385,361.333 61.227,361.333 61.147 C 361.333 61.018,359.235 57.675,358.886 57.250 C 358.811 57.158,358.602 56.802,358.420 56.458 C 358.239 56.115,358.033 55.833,357.962 55.833 C 357.891 55.833,357.833 55.765,357.833 55.681 C 357.833 55.597,357.421 54.916,356.917 54.167 C 356.412 53.418,356.000 52.773,356.000 52.734 C 356.000 52.665,355.324 51.606,352.924 47.917 C 352.269 46.908,351.361 45.496,350.908 44.778 C 350.454 44.060,349.971 43.297,349.833 43.082 C 349.696 42.867,349.046 41.842,348.390 40.804 C 347.733 39.766,346.946 38.525,346.640 38.045 L 346.083 37.174 342.569 37.170 C 340.637 37.168,339.006 37.217,338.944 37.278 M158.183 38.708 C 157.884 39.465,157.578 40.201,157.503 40.345 C 157.429 40.489,157.162 41.127,156.911 41.762 C 156.128 43.742,154.826 46.877,154.404 47.796 C 154.182 48.280,154.000 48.750,154.000 48.840 C 154.000 48.931,153.931 49.135,153.847 49.294 C 153.763 49.453,153.571 49.883,153.419 50.250 C 153.268 50.617,153.078 51.067,152.998 51.250 C 152.917 51.433,152.615 52.183,152.327 52.917 C 152.038 53.650,151.705 54.475,151.585 54.750 C 151.466 55.025,151.293 55.438,151.201 55.667 C 151.109 55.896,150.925 56.346,150.791 56.667 C 150.658 56.987,150.343 57.775,150.091 58.417 C 149.839 59.058,149.574 59.701,149.501 59.845 C 149.428 59.989,149.127 60.701,148.833 61.428 C 148.539 62.155,147.856 63.814,147.316 65.115 C 146.775 66.416,146.333 67.523,146.333 67.576 C 146.333 67.628,146.175 68.026,145.981 68.460 C 145.787 68.895,145.519 69.512,145.386 69.833 C 145.253 70.154,145.079 70.567,144.998 70.750 C 144.918 70.933,144.630 71.628,144.358 72.295 L 143.863 73.506 147.944 73.461 L 152.024 73.417 152.336 72.667 C 152.508 72.254,152.962 71.017,153.346 69.917 C 153.730 68.817,154.165 67.598,154.314 67.209 L 154.583 66.501 161.623 66.501 L 168.662 66.500 168.885 67.042 C 169.007 67.340,169.317 68.221,169.573 69.000 C 170.077 70.533,170.270 71.070,170.850 72.542 L 171.228 73.500 175.300 73.500 L 179.372 73.500 179.286 73.125 C 179.239 72.919,179.037 72.337,178.839 71.833 C 178.640 71.329,178.457 70.842,178.433 70.750 C 178.409 70.658,178.308 70.396,178.209 70.167 C 178.110 69.938,177.826 69.225,177.577 68.583 C 177.119 67.401,175.909 64.361,175.653 63.750 C 175.577 63.567,175.179 62.554,174.768 61.500 C 174.358 60.446,173.930 59.358,173.817 59.083 C 173.704 58.808,173.599 58.546,173.583 58.500 C 173.568 58.454,173.467 58.192,173.358 57.917 C 172.898 56.750,172.679 56.186,172.257 55.083 C 172.011 54.442,171.709 53.692,171.586 53.417 C 171.241 52.647,169.833 49.029,169.833 48.912 C 169.833 48.855,169.579 48.195,169.267 47.446 C 168.956 46.696,168.499 45.558,168.251 44.917 C 168.003 44.275,167.730 43.616,167.645 43.452 C 167.559 43.289,167.236 42.455,166.927 41.599 C 166.617 40.744,166.289 39.903,166.198 39.730 C 166.107 39.558,165.858 38.948,165.644 38.375 L 165.256 37.333 161.992 37.333 L 158.727 37.333 158.183 38.708 M86.676 41.432 C 85.818 41.663,84.835 42.258,84.375 42.827 C 84.151 43.103,83.223 45.022,81.792 48.167 C 81.563 48.671,81.186 49.496,80.955 50.000 C 80.724 50.504,80.294 51.442,80.001 52.083 C 79.061 54.136,77.638 57.187,76.685 59.192 C 76.308 59.985,76.000 60.745,76.000 60.880 C 76.000 61.015,75.887 61.219,75.750 61.333 C 75.612 61.447,75.500 61.619,75.500 61.716 C 75.500 61.872,74.722 63.627,74.322 64.373 C 73.997 64.978,74.115 65.000,77.641 65.000 L 81.116 65.000 81.417 64.333 C 81.582 63.967,81.768 63.667,81.829 63.667 C 81.891 63.667,82.108 63.348,82.313 62.958 C 82.517 62.569,82.829 62.025,83.004 61.750 C 83.180 61.475,83.477 60.987,83.664 60.667 C 84.167 59.803,84.406 59.427,84.510 59.333 C 84.561 59.288,84.881 58.762,85.221 58.167 C 85.561 57.571,86.555 55.921,87.431 54.500 C 88.307 53.079,89.066 51.804,89.120 51.667 C 89.173 51.529,89.381 51.192,89.583 50.917 C 89.785 50.642,90.082 50.161,90.243 49.849 C 90.404 49.537,90.604 49.199,90.687 49.099 C 93.129 46.156,92.236 42.443,88.844 41.435 C 87.782 41.120,87.839 41.120,86.676 41.432 M231.974 43.599 C 234.482 44.307,235.695 44.913,237.000 46.110 C 237.321 46.404,237.783 46.828,238.027 47.051 C 241.557 50.280,242.187 57.536,239.320 61.938 C 238.119 63.780,235.439 66.130,234.205 66.422 C 234.046 66.459,233.467 66.655,232.917 66.857 C 231.595 67.343,228.277 67.397,226.769 66.959 C 217.323 64.210,215.126 51.255,223.136 45.539 C 224.697 44.426,224.958 44.307,227.417 43.597 C 228.549 43.270,230.812 43.271,231.974 43.599 M317.583 43.667 C 319.557 44.171,321.170 45.059,322.680 46.470 C 323.897 47.607,325.500 49.835,325.500 50.389 C 325.500 50.505,325.562 50.671,325.638 50.758 C 326.397 51.625,326.749 57.424,326.116 58.617 C 325.961 58.910,325.833 59.257,325.833 59.388 C 325.833 61.232,321.786 65.678,319.417 66.436 C 319.325 66.466,318.800 66.658,318.250 66.863 C 316.987 67.335,313.658 67.460,312.583 67.076 C 312.217 66.945,311.821 66.837,311.705 66.836 C 311.334 66.831,308.638 65.452,308.549 65.221 C 308.503 65.100,308.371 65.000,308.257 65.000 C 308.002 65.000,305.955 62.869,305.590 62.222 C 305.443 61.963,305.132 61.413,304.899 61.000 C 302.803 57.286,303.145 51.866,305.695 48.365 C 306.536 47.211,308.202 45.576,308.902 45.217 C 309.185 45.072,309.454 44.908,309.500 44.852 C 309.761 44.534,310.960 44.060,312.670 43.601 C 313.996 43.244,316.040 43.272,317.583 43.667 M199.025 44.599 C 202.848 47.012,202.588 52.305,198.559 54.087 C 197.654 54.487,197.508 54.500,193.813 54.500 L 190.000 54.500 190.000 49.333 L 190.000 44.167 194.170 44.167 L 198.340 44.167 199.025 44.599 M162.368 48.417 C 162.634 49.150,163.108 50.500,163.420 51.417 C 163.732 52.333,164.295 53.946,164.672 55.000 C 165.390 57.006,166.281 59.544,166.444 60.042 C 166.533 60.315,166.233 60.333,161.686 60.333 C 159.017 60.333,156.834 60.315,156.835 60.292 C 156.841 60.156,157.379 58.548,157.824 57.333 C 158.110 56.554,158.494 55.467,158.678 54.917 C 158.861 54.367,159.075 53.767,159.152 53.583 C 159.531 52.681,159.718 52.182,160.024 51.257 C 160.207 50.703,160.416 50.100,160.487 49.917 C 160.654 49.487,161.010 48.465,161.068 48.250 C 161.242 47.596,161.742 46.643,161.806 46.843 C 161.848 46.975,162.101 47.683,162.368 48.417 M167.435 81.414 C 163.415 83.115,161.800 87.550,163.898 91.125 C 164.180 91.606,164.469 92.000,164.539 92.000 C 164.609 92.000,164.667 92.096,164.667 92.214 C 164.667 92.332,164.889 92.559,165.161 92.720 C 165.432 92.880,165.755 93.112,165.877 93.234 C 168.187 95.544,173.421 94.620,175.568 91.523 C 179.206 86.272,173.300 78.931,167.435 81.414 M363.250 81.359 C 360.201 82.936,360.406 87.133,363.576 88.032 C 363.947 88.137,364.321 88.285,364.408 88.361 C 364.495 88.438,364.690 88.500,364.841 88.500 C 366.163 88.500,367.327 90.142,366.839 91.320 C 365.991 93.368,362.667 92.842,362.667 90.660 C 362.667 90.373,362.549 90.333,361.692 90.333 L 360.717 90.333 360.865 91.276 C 361.618 96.079,369.125 95.334,368.911 90.478 C 368.818 88.366,367.657 87.162,365.000 86.421 C 363.244 85.931,362.585 84.764,363.424 83.630 C 364.449 82.244,366.667 82.948,366.667 84.658 C 366.667 84.965,366.770 85.000,367.667 85.000 C 368.594 85.000,368.666 84.973,368.663 84.625 C 368.656 83.992,368.361 82.926,368.175 82.864 C 368.079 82.832,368.000 82.725,368.000 82.626 C 368.000 81.438,364.765 80.576,363.250 81.359 M143.778 81.278 C 143.717 81.339,143.667 84.264,143.667 87.778 L 143.667 94.167 144.667 94.167 L 145.667 94.167 145.667 91.417 L 145.667 88.667 148.083 88.667 L 150.500 88.667 150.500 87.750 L 150.500 86.833 148.083 86.833 L 145.667 86.833 145.667 85.000 L 145.667 83.167 148.167 83.167 L 150.667 83.167 150.667 82.167 L 150.667 81.167 147.278 81.167 C 145.414 81.167,143.839 81.217,143.778 81.278 M189.667 87.667 L 189.667 94.167 190.583 94.167 L 191.500 94.167 191.500 88.667 L 191.500 83.167 193.179 83.167 C 195.516 83.167,196.478 83.727,196.718 85.229 C 196.995 86.956,195.649 87.993,193.125 87.997 C 192.415 87.999,191.833 88.039,191.833 88.086 C 191.833 88.238,193.793 90.898,194.292 91.423 C 194.406 91.544,194.500 91.685,194.500 91.736 C 194.500 91.829,194.896 92.340,195.292 92.757 C 195.406 92.877,195.500 93.023,195.500 93.080 C 195.500 93.696,196.479 94.181,197.625 94.133 L 198.816 94.083 197.842 92.833 C 197.306 92.146,196.560 91.156,196.185 90.635 L 195.502 89.686 196.452 89.204 C 198.244 88.295,198.882 86.918,198.591 84.588 C 198.295 82.218,196.175 81.178,191.625 81.170 L 189.667 81.167 189.667 87.667 M303.500 87.643 L 303.500 94.167 304.500 94.167 L 305.500 94.167 305.500 88.667 L 305.500 83.167 306.625 83.150 C 308.538 83.121,308.896 83.177,309.555 83.606 C 311.943 85.162,310.494 87.984,307.302 87.995 C 306.596 87.998,305.975 88.072,305.921 88.159 C 305.837 88.296,307.656 90.937,307.994 91.167 C 308.061 91.212,308.296 91.520,308.516 91.849 C 308.737 92.179,309.205 92.835,309.557 93.308 L 310.198 94.167 311.438 94.167 C 312.784 94.167,312.868 94.035,312.015 93.264 C 311.824 93.090,311.667 92.864,311.667 92.761 C 311.667 92.658,311.517 92.465,311.333 92.333 C 311.150 92.201,311.000 92.033,311.000 91.960 C 311.000 91.886,310.625 91.349,310.167 90.766 C 309.177 89.507,309.185 89.543,309.894 89.410 C 310.435 89.308,312.276 87.887,312.097 87.708 C 312.050 87.661,312.122 87.466,312.256 87.274 C 312.578 86.814,312.584 84.523,312.264 83.758 C 311.514 81.963,310.027 81.338,306.208 81.210 L 303.500 81.120 303.500 87.643 M340.667 87.667 L 340.667 94.167 344.417 94.167 L 348.167 94.167 348.167 93.333 L 348.167 92.500 345.417 92.500 L 342.667 92.500 342.667 90.583 L 342.667 88.667 345.333 88.667 L 348.000 88.667 348.000 87.750 L 348.000 86.833 345.333 86.833 L 342.667 86.833 342.667 85.000 L 342.667 83.167 345.417 83.167 L 348.167 83.167 348.167 82.167 L 348.167 81.167 344.417 81.167 L 340.667 81.167 340.667 87.667 M211.167 87.750 L 211.167 94.167 212.164 94.167 L 213.161 94.167 213.206 89.567 L 213.250 84.968 213.890 86.526 C 214.242 87.382,214.595 88.233,214.674 88.417 C 214.752 88.600,215.090 89.425,215.424 90.250 C 215.758 91.075,216.108 91.844,216.203 91.958 C 216.297 92.073,216.323 92.167,216.261 92.167 C 216.199 92.167,216.252 92.373,216.379 92.625 C 216.507 92.877,216.720 93.308,216.853 93.583 C 217.067 94.027,217.187 94.089,217.922 94.130 L 218.750 94.176 219.483 92.380 C 219.886 91.392,220.382 90.208,220.585 89.750 C 220.788 89.292,221.321 88.031,221.769 86.950 L 222.583 84.983 222.628 89.575 L 222.672 94.167 223.669 94.167 L 224.667 94.167 224.667 87.750 L 224.667 81.333 223.370 81.333 L 222.073 81.333 221.849 81.875 C 221.726 82.173,221.604 82.492,221.579 82.583 C 221.486 82.913,220.460 85.254,220.336 85.417 C 220.267 85.508,220.121 85.861,220.012 86.199 C 219.903 86.538,219.604 87.251,219.347 87.783 C 219.091 88.315,218.778 89.050,218.651 89.417 C 218.354 90.280,217.893 91.066,217.788 90.889 C 217.742 90.812,217.462 90.150,217.165 89.417 C 216.869 88.683,216.410 87.614,216.146 87.041 C 215.882 86.468,215.667 85.938,215.667 85.864 C 215.667 85.790,215.492 85.359,215.279 84.906 C 215.065 84.454,214.639 83.465,214.332 82.708 L 213.773 81.333 212.470 81.333 L 211.167 81.333 211.167 87.750 M238.199 86.292 C 238.247 90.910,238.274 91.301,238.598 92.000 C 239.886 94.773,243.724 95.425,245.908 93.241 C 247.167 91.982,247.202 91.804,247.286 86.208 L 247.360 81.333 246.356 81.333 L 245.352 81.333 245.301 86.125 C 245.238 92.087,245.045 92.575,242.750 92.581 C 240.378 92.587,240.146 91.995,240.161 85.985 L 240.173 81.333 239.161 81.333 L 238.148 81.333 238.199 86.292 M260.833 87.750 L 260.833 94.167 264.333 94.167 L 267.833 94.167 267.833 93.333 L 267.833 92.500 265.333 92.500 L 262.833 92.500 262.833 86.917 L 262.833 81.333 261.833 81.333 L 260.833 81.333 260.833 87.750 M283.663 81.760 C 283.435 82.359,282.843 83.792,282.497 84.583 C 282.337 84.950,281.928 85.925,281.588 86.750 C 280.986 88.212,280.474 89.377,279.821 90.768 C 279.645 91.145,279.497 91.520,279.493 91.602 C 279.489 91.683,279.236 92.275,278.930 92.917 L 278.374 94.083 279.371 94.133 C 280.522 94.191,280.576 94.146,281.219 92.583 C 281.445 92.033,281.769 91.265,281.938 90.875 L 282.245 90.167 284.832 90.167 L 287.419 90.167 287.818 91.042 C 288.037 91.523,288.312 92.142,288.428 92.417 C 288.544 92.692,288.761 93.198,288.911 93.542 L 289.182 94.167 290.253 94.167 C 291.515 94.167,291.509 94.338,290.347 91.791 C 290.064 91.172,289.833 90.624,289.833 90.573 C 289.833 90.521,289.642 90.053,289.408 89.531 C 288.083 86.580,287.865 86.079,287.232 84.552 C 286.902 83.755,286.519 82.929,286.380 82.718 C 286.242 82.506,286.176 82.333,286.235 82.333 C 286.294 82.333,286.226 82.108,286.083 81.833 C 285.713 81.117,283.928 81.063,283.663 81.760 M325.333 87.750 L 325.333 94.167 326.250 94.167 L 327.167 94.167 327.167 87.750 L 327.167 81.333 326.250 81.333 L 325.333 81.333 325.333 87.750 M171.117 83.023 C 172.407 83.549,172.689 83.720,173.249 84.311 C 177.683 88.991,171.295 95.530,166.471 91.249 C 162.912 88.091,166.774 81.252,171.117 83.023 M285.664 85.997 C 285.864 86.499,286.077 86.987,286.138 87.080 C 286.198 87.174,286.333 87.494,286.437 87.792 L 286.627 88.333 284.897 88.333 C 282.878 88.333,282.911 88.378,283.688 86.705 C 283.974 86.088,284.284 85.396,284.377 85.167 C 284.870 83.944,284.871 83.942,285.095 84.540 C 285.207 84.839,285.463 85.494,285.664 85.997 " stroke="none" fill="#2cec04" fill-rule="evenodd"></path><path id="path1" d="M124.000 66.417 L 124.000 103.333 124.750 103.333 L 125.500 103.333 125.500 66.417 L 125.500 29.500 124.750 29.500 L 124.000 29.500 124.000 66.417 M189.576 87.750 C 189.576 91.325,189.598 92.764,189.625 90.947 C 189.652 89.131,189.652 86.206,189.625 84.447 C 189.598 82.689,189.576 84.175,189.576 87.750 " stroke="none" fill="#2cfc14" fill-rule="evenodd"></path><path id="path2" d="" stroke="none" fill="#30ec04" fill-rule="evenodd"></path><path id="path3" d="" stroke="none" fill="#2cf010" fill-rule="evenodd"></path><path id="path4" d="M186.720 37.292 C 188.811 37.318,192.186 37.318,194.220 37.291 C 196.253 37.265,194.542 37.243,190.417 37.243 C 186.292 37.243,184.628 37.265,186.720 37.292 M255.958 37.291 C 256.898 37.321,258.435 37.321,259.375 37.291 C 260.315 37.261,259.546 37.237,257.667 37.237 C 255.787 37.237,255.019 37.261,255.958 37.291 M278.875 37.291 C 279.860 37.321,281.473 37.321,282.458 37.291 C 283.444 37.262,282.637 37.237,280.667 37.237 C 278.696 37.237,277.890 37.262,278.875 37.291 " stroke="none" fill="#2cf404" fill-rule="evenodd"></path></g></svg>